<svg width="100" height="100" viewBox="0 0 100 100" fill="none" xmlns="http://www.w3.org/2000/svg">
<path d="M42.2266 44.2871L40.5664 48.8477H43.9258L42.2266 44.2871Z" fill="white"/>
<path d="M70.8301 25.3613H30.4883C28.877 25.3613 27.5586 26.6797 27.5586 28.291V68.6328C27.5586 70.2441 28.877 71.5625 30.4883 71.5625H70.8301C72.4414 71.5625 73.7598 70.2441 73.7598 68.6328V28.291C73.7598 26.6699 72.4414 25.3613 70.8301 25.3613ZM61.1816 41.4258H63.6621V53.7109H61.1816V41.4258ZM49.8047 41.4258H53.7891C55.3027 41.4258 56.2793 41.4844 56.7383 41.6113C57.4414 41.7969 58.0273 42.1973 58.5059 42.8125C58.9844 43.4277 59.2188 44.2285 59.2188 45.2051C59.2188 45.957 59.082 46.5918 58.8086 47.1094C58.5352 47.627 58.1836 48.0273 57.7637 48.3203C57.3437 48.6133 56.9141 48.8086 56.4746 48.9062C55.8789 49.0234 55.0293 49.082 53.8965 49.082H52.2754V53.7109H49.8047V41.4258ZM40.9473 41.4258H43.5742L48.4863 53.7109H45.791L44.7168 50.918H39.8047L38.7891 53.7109H36.1523L40.9473 41.4258ZM63.3203 68.1152H34.4336C32.5391 68.1152 31.0059 66.582 31.0059 64.6875V35.8789C31.0059 35.3418 31.4453 34.9023 31.9824 34.9023C32.5195 34.9023 32.959 35.3418 32.959 35.8789V64.6875C32.959 65.498 33.623 66.1621 34.4336 66.1621H63.3203C63.8574 66.1621 64.2969 66.6016 64.2969 67.1387C64.2969 67.6758 63.8672 68.1152 63.3203 68.1152Z" fill="white"/>
<path d="M55.6055 46.7969C55.9375 46.6699 56.1914 46.4648 56.3769 46.1914C56.5625 45.918 56.6602 45.5957 56.6602 45.2344C56.6602 44.7852 56.5332 44.4141 56.2695 44.1309C56.0059 43.8379 55.6738 43.6621 55.2734 43.584C54.9805 43.5254 54.3848 43.4961 53.4863 43.4961H52.2852V46.9824H53.6426C54.6191 46.9922 55.2734 46.9238 55.6055 46.7969Z" fill="white"/>
<path d="M63.3203 66.1621H34.4336C33.623 66.1621 32.959 65.4981 32.959 64.6875V35.8789C32.959 35.3418 32.5195 34.9023 31.9824 34.9023C31.4453 34.9023 31.0059 35.3418 31.0059 35.8789V64.6875C31.0059 66.582 32.5391 68.1152 34.4336 68.1152H63.3203C63.8574 68.1152 64.2969 67.6758 64.2969 67.1387C64.2969 66.6016 63.8672 66.1621 63.3203 66.1621Z" fill="#06F3FF"/>
<path d="M84.4727 37.7441C85.5469 37.7441 86.4258 36.8652 86.4258 35.791C86.4258 34.7168 85.5469 33.8379 84.4727 33.8379H77.666V28.291C77.666 24.5215 74.5996 21.4551 70.8301 21.4551H68.1152V14.8828C68.1152 13.8086 67.2363 12.9297 66.1621 12.9297C65.0879 12.9297 64.209 13.8086 64.209 14.8828V21.4551H59.668V14.8828C59.668 13.8086 58.7891 12.9297 57.7148 12.9297C56.6406 12.9297 55.7617 13.8086 55.7617 14.8828V21.4551H51.2207V14.8828C51.2207 13.8086 50.3418 12.9297 49.2676 12.9297C48.1934 12.9297 47.3145 13.8086 47.3145 14.8828V21.4551H42.7734V14.8828C42.7734 13.8086 41.8945 12.9297 40.8203 12.9297C39.7461 12.9297 38.8672 13.8086 38.8672 14.8828V21.4551H30.4883C26.7188 21.4551 23.6523 24.5215 23.6523 28.291V33.8379H16.8457C15.7715 33.8379 14.8926 34.7168 14.8926 35.791C14.8926 36.8652 15.7715 37.7441 16.8457 37.7441H23.6523V42.2852H16.8457C15.7715 42.2852 14.8926 43.1641 14.8926 44.2383C14.8926 45.3125 15.7715 46.1914 16.8457 46.1914H23.6523V50.7324H16.8457C15.7715 50.7324 14.8926 51.6113 14.8926 52.6855C14.8926 53.7598 15.7715 54.6387 16.8457 54.6387H23.6523V59.1797H16.8457C15.7715 59.1797 14.8926 60.0586 14.8926 61.1328C14.8926 62.207 15.7715 63.0859 16.8457 63.0859H23.6523V68.6328C23.6523 72.4023 26.7188 75.4688 30.4883 75.4688H33.4961V82.5488C33.4961 83.623 34.375 84.502 35.4492 84.502C36.5234 84.502 37.4023 83.623 37.4023 82.5488V75.4688H41.9434V82.5488C41.9434 83.623 42.8223 84.502 43.8965 84.502C44.9707 84.502 45.8496 83.623 45.8496 82.5488V75.4688H50.3906V82.5488C50.3906 83.623 51.2695 84.502 52.3438 84.502C53.418 84.502 54.2969 83.623 54.2969 82.5488V75.4688H58.8379V82.5488C58.8379 83.623 59.7168 84.502 60.791 84.502C61.8652 84.502 62.7441 83.623 62.7441 82.5488V75.4688H70.8301C74.5996 75.4688 77.666 72.4023 77.666 68.6328V63.0859H84.4727C85.5469 63.0859 86.4258 62.207 86.4258 61.1328C86.4258 60.0586 85.5469 59.1797 84.4727 59.1797H77.666V54.6387H84.4727C85.5469 54.6387 86.4258 53.7598 86.4258 52.6855C86.4258 51.6113 85.5469 50.7324 84.4727 50.7324H77.666V46.1914H84.4727C85.5469 46.1914 86.4258 45.3125 86.4258 44.2383C86.4258 43.1641 85.5469 42.2852 84.4727 42.2852H77.666V37.7441H84.4727ZM73.7598 68.6231C73.7598 70.2344 72.4414 71.5527 70.8301 71.5527H30.4883C28.877 71.5527 27.5586 70.2344 27.5586 68.6231V28.291C27.5586 26.6797 28.877 25.3613 30.4883 25.3613H70.8301C72.4414 25.3613 73.7598 26.6797 73.7598 28.291V68.6231Z" fill="#005BFF"/>
<path d="M39.8047 50.918H44.7168L45.791 53.7109H48.4863L43.5645 41.4258H40.9375L36.1523 53.7109H38.7891L39.8047 50.918ZM42.2266 44.2871L43.916 48.8477H40.5664L42.2266 44.2871ZM52.2852 49.082H53.9062C55.0293 49.082 55.8887 49.0234 56.4844 48.9062C56.9238 48.8086 57.3535 48.6133 57.7734 48.3203C58.1934 48.0273 58.5449 47.627 58.8184 47.1094C59.0918 46.5918 59.2285 45.957 59.2285 45.2051C59.2285 44.2285 58.9941 43.4277 58.5156 42.8125C58.0371 42.1973 57.4512 41.7969 56.748 41.6113C56.2891 41.4844 55.3027 41.4258 53.7988 41.4258H49.8047V53.7109H52.2852V49.082ZM52.2852 43.5059H53.4863C54.3848 43.5059 54.9707 43.5352 55.2734 43.5937C55.6738 43.6621 56.0059 43.8477 56.2695 44.1406C56.5332 44.4336 56.6602 44.8047 56.6602 45.2441C56.6602 45.6055 56.5625 45.9277 56.377 46.2012C56.1914 46.4746 55.9277 46.6797 55.6055 46.8066C55.2734 46.9336 54.6191 47.002 53.6426 47.002H52.2852V43.5059ZM61.1816 41.4258H63.6621V53.7109H61.1816V41.4258Z" fill="#005BFF"/>
</svg>
