<svg width="75" height="75" viewBox="0 0 75 75" fill="none" xmlns="http://www.w3.org/2000/svg">
<g clip-path="url(#clip0_11_6)">
<path d="M38.3719 5.21717C37.8123 4.99289 37.1877 4.99289 36.6281 5.21717L8.65312 16.4062L37.5 27.9422L66.3469 16.4062L38.3719 5.21717ZM70.3125 19.8703L39.8438 32.0578V69.1922L70.3125 57.0047V19.8703ZM35.1562 69.1969V32.0531L4.6875 19.8703V57.0093L35.1562 69.1969ZM34.8891 0.862478C36.5652 0.192162 38.4348 0.192162 40.1109 0.862478L73.5281 14.2312C73.9626 14.4053 74.335 14.7056 74.5973 15.0932C74.8596 15.4809 74.9999 15.9382 75 16.4062V57.0093C74.9994 57.946 74.7182 58.861 74.1927 59.6364C73.6672 60.4117 72.9214 61.0118 72.0516 61.3594L38.3719 74.8312C37.8123 75.0555 37.1877 75.0555 36.6281 74.8312L2.95312 61.3594C2.08243 61.0126 1.33567 60.4128 0.80926 59.6374C0.282852 58.862 0.000967168 57.9466 0 57.0093L0 16.4062C0.000108937 15.9382 0.140361 15.4809 0.402689 15.0932C0.665017 14.7056 1.0374 14.4053 1.47188 14.2312L34.8891 0.862478Z" fill="#43F8FF"/>
</g>
<defs>
<clipPath id="clip0_11_6">
<rect width="75" height="75" fill="white"/>
</clipPath>
</defs>
</svg>
