<svg width="100" height="100" viewBox="0 0 100 100" fill="none" xmlns="http://www.w3.org/2000/svg">
<g clip-path="url(#clip0_13_2)">
<path fill-rule="evenodd" clip-rule="evenodd" d="M0.291319 50.2513C-0.157038 49.6376 -0.0491 49.1964 0.349439 48.5762C16.8722 24.9391 41.8058 10.4384 73.2239 0.0743261C74.295 -0.277322 75.8725 0.688112 75.4906 1.55125C70.8078 12.0432 67.5032 22.2601 65.5852 33.238C63.8416 43.3526 63.3601 53.8126 65.1286 64.7392C67.005 77.1364 70.8493 87.4238 75.4823 98.5103C75.9971 99.7442 74.3614 100.307 73.1077 99.8337C40.3943 87.4302 15.6018 71.216 0.291319 50.2513Z" fill="#EE3167"/>
<path fill-rule="evenodd" clip-rule="evenodd" d="M97.7425 72.0663C79.6588 67.6994 63.4764 60.2956 49.1373 50.5134C48.1825 49.8613 48.2904 48.947 49.1539 48.314C63.3934 37.8285 79.5508 29.5999 97.4186 23.7817C98.9879 23.2639 100.283 24.2677 99.8182 25.6487C94.7534 40.6033 93.6408 55.3789 99.8846 70.1929C100.399 71.4269 99.1041 72.3923 97.7425 72.0663Z" fill="#0098DA" fill-opacity="0.639"/>
<path fill-rule="evenodd" clip-rule="evenodd" d="M97.7425 72.0663C85.8361 69.1891 74.7518 64.9949 64.4811 59.6818C63.767 51.2103 63.7089 47.4445 64.863 38.1034C74.9363 32.3491 85.8655 27.5412 97.4186 23.7817C98.9879 23.2639 100.283 24.2677 99.8182 25.6487C94.7534 40.6033 93.6408 55.3789 99.8846 70.1929C100.399 71.4269 99.1041 72.3923 97.7425 72.0663Z" fill="#5ABAE7"/>
</g>
<defs>
<clipPath id="clip0_13_2">
<rect width="100" height="100" fill="white"/>
</clipPath>
</defs>
</svg>
