<svg width="50" height="50" viewBox="0 0 50 50" fill="none" xmlns="http://www.w3.org/2000/svg">
<g clip-path="url(#clip0_8_48)">
<path d="M29.3906 3.28125C28.1 -1.09375 21.9 -1.09375 20.6094 3.28125L20.2969 4.34375C20.104 4.99873 19.767 5.60225 19.3106 6.11004C18.8542 6.61783 18.2898 7.01702 17.659 7.27832C17.0282 7.53963 16.347 7.65644 15.6651 7.62018C14.9833 7.58391 14.3183 7.3955 13.7188 7.06875L12.75 6.5375C8.74062 4.35625 4.35625 8.74063 6.54062 12.7469L7.06875 13.7188C8.4625 16.2812 7.14062 19.4719 4.34375 20.2969L3.28125 20.6094C-1.09375 21.9 -1.09375 28.1 3.28125 29.3906L4.34375 29.7031C4.99873 29.896 5.60225 30.233 6.11004 30.6894C6.61783 31.1458 7.01702 31.7102 7.27832 32.341C7.53963 32.9718 7.65644 33.653 7.62018 34.3349C7.58391 35.0167 7.3955 35.6817 7.06875 36.2812L6.5375 37.25C4.35625 41.2594 8.74063 45.6437 12.7469 43.4594L13.7188 42.9313C14.3183 42.6045 14.9833 42.4161 15.6651 42.3798C16.347 42.3436 17.0282 42.4604 17.659 42.7217C18.2898 42.983 18.8542 43.3822 19.3106 43.89C19.767 44.3978 20.104 45.0013 20.2969 45.6562L20.6094 46.7188C21.9 51.0938 28.1 51.0938 29.3906 46.7188L29.7031 45.6562C29.896 45.0013 30.233 44.3978 30.6894 43.89C31.1458 43.3822 31.7102 42.983 32.341 42.7217C32.9718 42.4604 33.653 42.3436 34.3349 42.3798C35.0167 42.4161 35.6817 42.6045 36.2812 42.9313L37.25 43.4625C41.2594 45.6437 45.6437 41.2594 43.4594 37.2531L42.9313 36.2812C42.6045 35.6817 42.4161 35.0167 42.3798 34.3349C42.3436 33.653 42.4604 32.9718 42.7217 32.341C42.983 31.7102 43.3822 31.1458 43.89 30.6894C44.3978 30.233 45.0013 29.896 45.6562 29.7031L46.7188 29.3906C51.0938 28.1 51.0938 21.9 46.7188 20.6094L45.6562 20.2969C45.0013 20.104 44.3978 19.767 43.89 19.3106C43.3822 18.8542 42.983 18.2898 42.7217 17.659C42.4604 17.0282 42.3436 16.347 42.3798 15.6651C42.4161 14.9833 42.6045 14.3183 42.9313 13.7188L43.4625 12.75C45.6437 8.74062 41.2594 4.35625 37.2531 6.54062L36.2812 7.06875C35.6817 7.3955 35.0167 7.58391 34.3349 7.62018C33.653 7.65644 32.9718 7.53963 32.341 7.27832C31.7102 7.01702 31.1458 6.61783 30.6894 6.11004C30.233 5.60225 29.896 4.99873 29.7031 4.34375L29.3906 3.28125ZM25 34.1562C22.5716 34.1562 20.2427 33.1916 18.5256 31.4744C16.8084 29.7573 15.8438 27.4284 15.8438 25C15.8438 22.5716 16.8084 20.2427 18.5256 18.5256C20.2427 16.8084 22.5716 15.8438 25 15.8438C27.4276 15.8438 29.7557 16.8081 31.4722 18.5246C33.1888 20.2412 34.1531 22.5693 34.1531 24.9969C34.1531 27.4244 33.1888 29.7526 31.4722 31.4691C29.7557 33.1857 27.4276 34.15 25 34.15V34.1562Z" fill="#43F8FF"/>
</g>
<defs>
<clipPath id="clip0_8_48">
<rect width="50" height="50" fill="white"/>
</clipPath>
</defs>
</svg>
