<svg width="100" height="100" viewBox="0 0 100 100" fill="none" xmlns="http://www.w3.org/2000/svg">
<path d="M90.1254 67.4609C89.9152 66.6691 89.5754 65.918 89.1195 65.2375C89.2172 64.8793 89.2918 64.5152 89.3414 64.1473C89.6652 61.8129 88.8559 59.6758 87.3309 58.0223C86.5047 57.1191 85.6191 56.5227 84.6813 56.1566C85.2969 53.5227 85.6082 50.827 85.6098 48.1223C85.6098 46.8867 85.5398 45.6766 85.4227 44.4844C85.3617 43.8891 85.2879 43.2953 85.2012 42.7031C84.9328 40.9559 84.5344 39.2309 84.0094 37.543C83.6652 36.4339 83.2672 35.3422 82.8164 34.2719C82.141 32.6868 81.3523 31.1523 80.4566 29.6805C79.8691 28.7012 79.2293 27.7542 78.5398 26.8438C78.202 26.384 77.85 25.9351 77.4836 25.4977C76.3984 24.1789 75.2191 22.9405 73.9551 21.7922C73.5352 21.4061 73.1035 21.0333 72.6602 20.6742C72.2238 20.3103 71.7777 19.9581 71.3227 19.618C70.4066 18.9362 69.4602 18.2966 68.4859 17.7012C63.1027 14.4316 56.7898 12.5566 50.0426 12.5566C30.3973 12.5566 14.4754 28.4793 14.4754 48.1234C14.4746 50.8625 14.7918 53.5922 15.4207 56.2578C14.577 56.6242 13.7684 57.1953 13.0184 58.0215C11.4938 59.6742 10.684 61.8035 11.0078 64.1379C11.057 64.5086 11.1309 64.8758 11.2293 65.2367C10.7739 65.9176 10.4343 66.6691 10.2242 67.4609C9.75547 69.2426 9.90977 70.8492 10.5055 72.257C9.85781 74.0969 10.0195 76.0562 10.8629 77.7598C11.4762 79.0039 12.3539 79.9664 13.4359 80.8266C14.7223 81.8492 16.3324 82.718 18.2746 83.5516C20.5918 84.5398 23.4203 85.4684 24.7066 85.809C28.0293 86.6691 31.2152 87.2145 34.4441 87.241C39.0445 87.2836 43.0063 86.202 45.8426 83.4336C47.2359 83.6043 48.6387 83.6898 50.0426 83.6891C51.5258 83.6859 53.0074 83.5926 54.4793 83.4098C57.309 86.1957 61.2859 87.2871 65.9031 87.2434C69.1316 87.2176 72.3176 86.6723 75.6316 85.8109C76.9266 85.4703 79.7539 84.5418 82.0723 83.5535C84.0145 82.7188 85.6246 81.85 86.9195 80.8289C87.9934 79.9684 88.8703 79.0062 89.484 77.7621C90.3359 76.0582 90.4891 74.0988 89.8504 72.259C90.4402 70.8512 90.5938 69.241 90.1254 67.4609ZM86.8285 72.1379C87.4813 73.3766 87.5231 74.7762 86.9473 76.0797C86.0738 78.0551 83.9043 79.6113 79.6906 81.282C77.0703 82.3211 74.6711 82.9855 74.65 82.9914C71.1844 83.8902 68.05 84.3469 65.3367 84.3469C60.8438 84.3469 57.5004 83.107 55.3801 80.6586C51.7945 81.2695 48.1336 81.2902 44.5414 80.7203C42.4184 83.1281 39.0941 84.3469 34.6391 84.3469C31.9254 84.3469 28.7914 83.8902 25.3254 82.9914C25.3043 82.9855 22.9059 82.3211 20.2848 81.282C16.0715 79.6113 13.9012 78.0563 13.0281 76.0797C12.4523 74.7762 12.4941 73.3766 13.1469 72.1379C13.207 72.0227 13.2719 71.9105 13.341 71.802C12.9498 71.2145 12.6875 70.5508 12.5711 69.8543C12.4548 69.1582 12.4871 68.4453 12.666 67.7625C12.9254 66.777 13.4609 65.9574 14.1883 65.3687C13.8379 64.793 13.608 64.1523 13.5125 63.4852C13.3031 62.0344 13.7848 60.5859 14.868 59.4047C15.7117 58.4855 16.9043 57.9797 18.2246 57.9797H18.2598C17.2643 54.7887 16.7595 51.4648 16.7629 48.1223C16.7629 29.8914 31.5426 15.1105 49.7762 15.1105C68.0094 15.1105 82.7891 29.8898 82.7891 48.1223C82.7918 51.4738 82.2836 54.8063 81.2816 58.0047C81.441 57.9891 81.5973 57.9812 81.7508 57.9809C83.0711 57.9809 84.2641 58.4867 85.107 59.4059C86.1902 60.5859 86.6723 62.0355 86.4625 63.4863C86.3672 64.1535 86.1371 64.7941 85.7871 65.3699C86.5145 65.9586 87.0504 66.7781 87.3094 67.7637C87.4883 68.4465 87.5207 69.1594 87.4043 69.8559C87.2883 70.5519 87.0258 71.2156 86.6344 71.8031C86.7035 71.9105 86.7691 72.0227 86.8285 72.1379Z" fill="white"/>
<path d="M86.6344 71.8031C87.0258 71.2156 87.2883 70.552 87.4047 69.8559C87.5207 69.1594 87.4883 68.4465 87.3094 67.7637C87.05 66.7781 86.5141 65.9586 85.7871 65.3699C86.1375 64.7941 86.3672 64.1535 86.4625 63.4863C86.6723 62.0355 86.1906 60.5871 85.107 59.4059C84.2641 58.4867 83.0711 57.9809 81.7508 57.9809C81.5973 57.9809 81.441 57.9891 81.2816 58.0047C82.2824 54.8063 82.7898 51.4742 82.7863 48.1231C82.7863 29.8918 68.0066 15.1114 49.775 15.1114C31.543 15.1114 16.7617 29.8903 16.7617 48.1231C16.7584 51.4656 17.2631 54.7895 18.2586 57.9805H18.2234C16.9031 57.9805 15.7105 58.4859 14.8672 59.4051C13.784 60.5852 13.3019 62.0352 13.5117 63.4855C13.6073 64.1527 13.8371 64.7938 14.1875 65.3695C13.4601 65.9578 12.9242 66.7774 12.6648 67.7629C12.486 68.4461 12.4538 69.159 12.5703 69.8555C12.6868 70.5516 12.9493 71.2156 13.3406 71.8031C13.271 71.9117 13.207 72.0238 13.1464 72.1391C12.4941 73.3777 12.4519 74.7773 13.0281 76.0809C13.9016 78.0563 16.071 79.6125 20.2847 81.2832C22.9046 82.3223 25.3043 82.9867 25.3254 82.9926C28.791 83.8914 31.9254 84.3481 34.6387 84.3481C39.0941 84.3481 42.4184 83.1293 44.5414 80.7215C48.1336 81.2914 51.7945 81.2703 55.3801 80.6598C57.5004 83.1082 60.8437 84.3481 65.3367 84.3481C68.05 84.3481 71.1844 83.8914 74.6496 82.9926C74.6711 82.9867 77.0695 82.3223 79.6906 81.2832C83.9043 79.6125 86.0742 78.0563 86.9473 76.0809C87.523 74.7773 87.4812 73.3777 86.8285 72.1391C86.7691 72.023 86.7035 71.9105 86.6344 71.8031ZM43.0223 76.952C42.8394 77.2715 42.6437 77.5836 42.4355 77.8871C41.8867 78.6906 41.1648 79.3047 40.3269 79.7609C38.7253 80.6344 36.698 80.9395 34.6387 80.9395C31.3852 80.9395 28.05 80.1781 26.1809 79.6934C26.0887 79.6695 14.7223 76.459 16.1613 73.7262C16.4035 73.2664 16.8019 73.0828 17.3039 73.0828C19.33 73.0828 23.0195 76.1 24.605 76.1C24.9593 76.1 25.2093 75.9492 25.3113 75.5813C25.9871 73.1578 15.0406 72.1391 15.9625 68.6297C16.125 68.0086 16.5664 67.7563 17.1867 67.7563C19.8656 67.7559 25.8781 72.4672 27.1355 72.4672C27.232 72.4672 27.3011 72.4387 27.3386 72.3793C27.3441 72.3703 27.3496 72.3617 27.3547 72.3523C27.9449 71.3777 27.6062 70.6691 23.5628 68.1926L23.1746 67.9563C18.725 65.2633 15.6019 63.6426 17.3781 61.709C17.5824 61.4859 17.8722 61.3871 18.2242 61.3871C18.6414 61.3871 19.1464 61.5266 19.7027 61.7609C22.0527 62.752 25.3098 65.4547 26.6703 66.6332C26.8843 66.8191 27.097 67.007 27.3082 67.1961C27.3082 67.1961 29.0309 68.9875 30.0723 68.9875C30.3121 68.9875 30.5156 68.893 30.6535 68.6594C31.3922 67.4141 23.7929 61.6555 23.3644 59.2793C23.0738 57.6695 23.5683 56.8539 24.4824 56.8539C24.9171 56.8539 25.4476 57.0391 26.0332 57.4105C27.8496 58.5633 31.3566 64.5899 32.6406 66.9344C33.071 67.7199 33.8058 68.052 34.4679 68.052C35.7816 68.052 36.8085 66.7461 34.5882 65.0867C31.2511 62.5898 32.4223 58.5086 34.0148 58.2574C34.0828 58.2465 34.1515 58.241 34.2199 58.241C35.6683 58.241 36.307 60.7367 36.307 60.7367C36.307 60.7367 38.1796 65.4391 41.3965 68.6535C44.3152 71.5711 44.723 73.9652 43.0223 76.952ZM53.4242 77.5027L53.2574 77.5227L52.973 77.5551C52.8234 77.5707 52.6734 77.5856 52.523 77.5992L52.3766 77.6125L52.2426 77.6238L52.0527 77.6391L51.843 77.6543L51.6336 77.668L51.5871 77.6711C51.5324 77.6742 51.4777 77.6777 51.4223 77.6805L51.3523 77.6844C51.2875 77.6879 51.2227 77.691 51.157 77.6938L50.9301 77.7035L50.7242 77.7105L50.5867 77.7145H50.5168C50.4738 77.7145 50.4312 77.7168 50.3883 77.7172H50.3203C50.2773 77.7172 50.2348 77.7172 50.1918 77.7191L50.0168 77.7215H49.7726C49.5809 77.7215 49.3894 77.7195 49.1988 77.7156L49.0441 77.7121C49 77.7121 48.9559 77.7102 48.9125 77.7086L48.7484 77.7039L48.5449 77.6961L48.3613 77.6879L48.3141 77.6859L48.1394 77.677C48.0906 77.6742 48.0426 77.6719 47.9941 77.6684L47.8812 77.6617C47.7394 77.6527 47.5976 77.643 47.4559 77.632L47.3074 77.6199C47.2449 77.6152 47.1824 77.6094 47.1203 77.6039C47.0473 77.5977 46.9742 77.5906 46.9012 77.5836C46.7789 77.5723 46.6566 77.5598 46.5344 77.5465H46.5285C48.3137 73.5641 47.4109 69.8445 43.8035 66.2402C41.4375 63.8773 39.8637 60.3883 39.5371 59.6223C38.8761 57.3547 37.1269 54.834 34.2219 54.834C33.9762 54.834 33.7309 54.8535 33.4883 54.8918C32.2156 55.0922 31.1031 55.8246 30.3094 56.927C29.4516 55.8602 28.618 55.0121 27.8641 54.5332C26.7273 53.8125 25.5929 53.4469 24.4878 53.4469C23.1085 53.4469 21.8757 54.0133 21.0164 55.0406L20.9945 55.0668C20.9781 54.9992 20.9625 54.9316 20.9464 54.8637L20.9445 54.8547C20.7809 54.1555 20.6436 53.4504 20.5328 52.7406C20.5328 52.7359 20.5328 52.7313 20.5304 52.7266C20.5218 52.673 20.514 52.6191 20.5058 52.5656C20.4818 52.407 20.4593 52.2481 20.4382 52.0891C20.4289 52.0168 20.4187 51.9445 20.4097 51.8723L20.3832 51.6555C20.3746 51.5832 20.3675 51.5176 20.3597 51.4488L20.3574 51.4316C20.3262 51.1504 20.2989 50.8691 20.2753 50.5871L20.2668 50.4789L20.2531 50.2945C20.2492 50.2441 20.2453 50.1934 20.2425 50.1426C20.2425 50.1305 20.2406 50.1188 20.2402 50.1074C20.2303 49.966 20.2218 49.8242 20.2148 49.6824C20.2109 49.6086 20.207 49.5352 20.2039 49.4609L20.196 49.2672L20.1941 49.2086L20.1878 49.0301L20.1839 48.8781C20.1839 48.8176 20.1808 48.757 20.18 48.6965C20.1789 48.6359 20.1773 48.5695 20.1769 48.5055C20.1761 48.4414 20.1769 48.3781 20.175 48.3145C20.1734 48.2504 20.175 48.1867 20.175 48.1231C20.175 31.7743 33.4292 18.52 49.7797 18.52C66.1297 18.52 79.3836 31.7739 79.3836 48.1231V48.5055C79.3836 48.5691 79.3816 48.6332 79.3805 48.6965C79.3805 48.7492 79.3781 48.8012 79.3766 48.8547C79.3766 48.9016 79.3746 48.9488 79.373 48.9941C79.373 49.0539 79.3695 49.1137 79.3676 49.1734V49.1781L79.3594 49.3856C79.3566 49.4461 79.3543 49.507 79.3512 49.5676L79.3492 49.6106L79.3387 49.8043C79.3156 50.2195 79.284 50.634 79.2445 51.048V51.0531C79.2379 51.1211 79.2312 51.1891 79.2238 51.257L79.2062 51.4176L79.1715 51.7316L79.1516 51.8906L79.1269 52.0777C79.118 52.1457 79.109 52.2141 79.0988 52.2816C79.0887 52.3578 79.0773 52.4336 79.066 52.5094L79.0391 52.6887L79.007 52.8918C78.9961 52.9594 78.9844 53.0266 78.9719 53.0938C78.959 53.1613 78.9488 53.2285 78.9371 53.2957C78.9137 53.4301 78.8891 53.5645 78.8633 53.6984C78.8238 53.8988 78.7836 54.0988 78.7422 54.2988L78.6992 54.4969C78.6852 54.5629 78.6699 54.6293 78.6551 54.6953C77.8219 53.8856 76.7184 53.4445 75.5016 53.4445C74.3973 53.4445 73.2617 53.8098 72.1254 54.5305C71.3715 55.0094 70.5383 55.8578 69.6801 56.9242C68.8851 55.8219 67.7727 55.0895 66.5008 54.8891C66.2582 54.8508 66.0129 54.8313 65.7672 54.8313C62.8613 54.8313 61.1133 57.352 60.4519 59.6195C60.1238 60.3856 58.5496 63.8746 56.1816 66.241C52.5766 69.834 51.6672 73.5367 53.4242 77.5027ZM83.9871 69.5305L83.9754 69.5652C83.9457 69.6438 83.9113 69.7203 83.8727 69.7945C83.8434 69.8492 83.8117 69.9023 83.7773 69.9539C83.7121 70.0512 83.6406 70.1441 83.5629 70.2316C83.5449 70.252 83.5277 70.2723 83.5074 70.2922C83.4793 70.3223 83.4508 70.352 83.4215 70.3809C82.8957 70.902 82.0941 71.359 81.1879 71.7781C81.0852 71.8246 80.9809 71.8711 80.8758 71.918L80.7711 71.9645C80.7012 71.9953 80.6312 72.0258 80.5578 72.0559C80.4879 72.0863 80.4152 72.1168 80.3426 72.1465L80.1246 72.2363C79.6148 72.4461 79.0926 72.6461 78.5832 72.8434L78.3652 72.9281L78.15 73.0125C78.0066 73.0684 77.8652 73.1242 77.7262 73.1801L77.5187 73.2637L77.3148 73.3469L77.2148 73.3891C77.148 73.4168 77.0828 73.4445 77.0176 73.4723C75.5187 74.1156 74.4402 74.7699 74.6668 75.5816C74.673 75.6047 74.6801 75.6266 74.6879 75.6481C74.7082 75.7082 74.7359 75.7649 74.7707 75.8184C74.791 75.85 74.8144 75.8801 74.8406 75.9074C75.107 76.1844 75.5918 76.1406 76.2031 75.9207C76.2891 75.8891 76.3746 75.8563 76.4594 75.8219L76.5125 75.8C76.6523 75.7406 76.8004 75.6742 76.9516 75.6024C76.9894 75.5844 77.0277 75.5672 77.066 75.5473C77.8137 75.1816 78.6609 74.6895 79.5016 74.2414C79.8379 74.0598 80.1789 73.8875 80.5242 73.7238C81.3203 73.3492 82.0687 73.0836 82.6703 73.0836C82.9527 73.0836 83.202 73.1414 83.4098 73.2742L83.4445 73.2973C83.575 73.3891 83.6844 73.507 83.766 73.6438C83.782 73.6699 83.7977 73.6977 83.8129 73.7262C84.1102 74.2906 83.8613 74.875 83.2789 75.4481C82.7199 75.9984 81.8504 76.5379 80.8621 77.0371C80.7887 77.0742 80.7152 77.1113 80.6406 77.1477C77.6992 78.5922 73.8473 79.6801 73.7937 79.6938C72.7672 79.9598 71.2992 80.309 69.6453 80.5703L69.4008 80.6086L69.3605 80.6145C69.1754 80.6426 68.9898 80.6688 68.8039 80.693C68.6152 80.7184 68.4246 80.7414 68.2328 80.7629L68.1976 80.7668C67.5023 80.8469 66.8043 80.9 66.1047 80.9254H66.0945C65.8414 80.9344 65.5887 80.9391 65.3355 80.9391H65.0437C64.6578 80.934 64.2726 80.9164 63.8879 80.8867C63.8789 80.8867 63.8691 80.8867 63.8601 80.8844C63.7223 80.8738 63.5848 80.8609 63.4473 80.8457C63.3047 80.8305 63.1625 80.8133 63.0207 80.7941C62.9273 80.7816 62.8344 80.7676 62.7414 80.7523C62.6469 80.7371 62.5523 80.7215 62.4582 80.7051L62.3297 80.6809L62.3199 80.6789C62.1844 80.6531 62.0496 80.6246 61.9152 80.5934C61.8371 80.5758 61.7594 80.5586 61.6824 80.5375L61.6359 80.5258C61.5976 80.5164 61.5605 80.5063 61.5226 80.4961L61.5019 80.4906L61.3816 80.4555C61.3379 80.4434 61.2941 80.4301 61.2504 80.4172L61.2351 80.4129L61.1215 80.3781C61.0785 80.3649 61.0355 80.3508 60.993 80.3367L60.8883 80.302L60.8113 80.275C60.7371 80.2488 60.6633 80.2219 60.5902 80.1938L60.5207 80.1664L60.4633 80.1438C60.3523 80.0992 60.2422 80.0527 60.1332 80.0039L60.0609 79.9688L60.0488 79.9633C60.023 79.9512 59.9977 79.9391 59.9719 79.9285C59.9215 79.9043 59.8715 79.8793 59.8219 79.8539L59.8066 79.8465L59.7348 79.8086C59.607 79.7418 59.482 79.6707 59.3594 79.5953L59.2922 79.5539C59.2586 79.5332 59.225 79.5117 59.1922 79.4899L59.1047 79.432L59.0105 79.3672L58.9543 79.327C58.8949 79.2848 58.8367 79.241 58.7797 79.1961L58.6887 79.1262C58.6523 79.0969 58.6164 79.0672 58.5808 79.0371C58.5508 79.0125 58.5215 78.9867 58.4922 78.9609L58.4898 78.959C58.4582 78.9313 58.4273 78.9035 58.3965 78.875C58.366 78.8473 58.3355 78.8191 58.3059 78.7906L58.3023 78.7871C58.2711 78.7574 58.2406 78.7273 58.2105 78.6965C58.1805 78.666 58.1496 78.6356 58.1203 78.6043C58.091 78.5734 58.0609 78.5418 58.032 78.5094C58.0031 78.4773 57.9766 78.4481 57.9492 78.4164L57.9402 78.4059C57.9137 78.3754 57.8875 78.3445 57.8617 78.3129C57.8059 78.2461 57.7516 78.1777 57.6992 78.1078C57.6465 78.0375 57.5949 77.9656 57.5445 77.8926L57.4965 77.8207C57.4324 77.727 57.3699 77.6324 57.3094 77.5363C57.2641 77.4672 57.2199 77.3977 57.1769 77.327C57.1492 77.2828 57.1227 77.2383 57.0961 77.1945L57.0851 77.1766C57.0598 77.1336 57.0348 77.0914 57.0105 77.0488C56.9965 77.0258 56.9832 77.0027 56.9707 76.9789C56.9578 76.9547 56.943 76.9301 56.9293 76.9055L56.907 76.8668L56.8934 76.8418C56.8672 76.7949 56.8414 76.7477 56.8164 76.7C56.8047 76.6789 56.7934 76.6578 56.7812 76.6375L56.7465 76.5699L56.7113 76.5031C56.6234 76.3274 56.5402 76.1492 56.4621 75.9688L56.4344 75.9027C56.4164 75.8586 56.3996 75.8148 56.3816 75.7715C56.373 75.7504 56.3644 75.7297 56.357 75.7086C56.3152 75.6004 56.2762 75.491 56.2402 75.3809C56.2273 75.3414 56.2148 75.3027 56.2031 75.2637C56.175 75.175 56.1496 75.0856 56.1269 74.9953C56.0992 74.8902 56.0746 74.7844 56.0539 74.6777C56.0496 74.6563 56.0453 74.6348 56.0418 74.6141C56.0215 74.5098 56.0051 74.4047 55.9922 74.2992C55.9891 74.2785 55.9867 74.2578 55.9844 74.2371L55.9777 74.1738C55.9691 74.091 55.9625 74.0078 55.9586 73.9246C55.9586 73.9035 55.9566 73.8824 55.9558 73.8621C55.9539 73.8207 55.9531 73.7793 55.9527 73.7379C55.9309 72.0688 56.7754 70.4641 58.5812 68.659C61.798 65.4453 63.6707 60.7426 63.6707 60.7426C63.6707 60.7426 63.7211 60.5453 63.8258 60.2613C63.8402 60.2219 63.8555 60.1813 63.8727 60.1387C63.9336 59.9797 64.0023 59.8234 64.0785 59.6711L64.0937 59.6418C64.1586 59.5121 64.2297 59.3856 64.3062 59.2625C64.3242 59.234 64.3414 59.2059 64.3613 59.1773C64.4187 59.0926 64.4793 59.0098 64.543 58.9297C64.5777 58.8863 64.6156 58.8434 64.6535 58.8016C64.6687 58.7852 64.6836 58.7688 64.6996 58.7531C64.8859 58.5606 65.0988 58.4035 65.3398 58.3199L65.3703 58.3098C65.3906 58.3031 65.4109 58.2969 65.4316 58.291C65.4555 58.2848 65.4793 58.2793 65.5039 58.2742L65.5152 58.2719C65.566 58.2617 65.6176 58.2551 65.6695 58.2516H65.6738C65.7008 58.2516 65.7281 58.2488 65.7559 58.2488C65.7906 58.2488 65.823 58.2488 65.857 58.2523C65.8922 58.2555 65.9269 58.2594 65.9621 58.2649C66.2519 58.3109 66.5277 58.4836 66.7652 58.75C66.8555 58.8516 66.9367 58.9609 67.0078 59.0766C67.0547 59.1516 67.0988 59.2309 67.1406 59.3145C67.1574 59.3492 67.1734 59.3813 67.1891 59.4156C67.2297 59.5039 67.2664 59.5938 67.2984 59.6856C67.3746 59.9004 67.432 60.1215 67.4699 60.3465C67.5027 60.5438 67.5223 60.743 67.5285 60.9426C67.5316 61.0492 67.5316 61.1574 67.5285 61.2664C67.5074 61.7734 67.4035 62.2738 67.2211 62.7477C67.2047 62.791 67.1863 62.8348 67.1687 62.8785C67.1328 62.9668 67.0933 63.0535 67.0508 63.1383C67.0191 63.2027 66.9859 63.2676 66.95 63.332C66.9266 63.375 66.9019 63.418 66.8773 63.4609C66.8144 63.568 66.7465 63.6742 66.6734 63.7801L66.6293 63.8434C66.4566 64.084 66.2644 64.3098 66.0543 64.5184C65.8473 64.7258 65.6254 64.9176 65.3906 65.0926C65.1555 65.2668 64.9348 65.4598 64.7309 65.6695C64.1437 66.2856 64.007 66.8293 64.1391 67.2414C64.1601 67.3063 64.1879 67.3691 64.2215 67.4285C64.2609 67.4965 64.3078 67.559 64.3609 67.616L64.3816 67.6375L64.4027 67.6586C64.4238 67.6789 64.4461 67.6988 64.4699 67.7184L64.4934 67.7371C64.55 67.7809 64.6101 67.8199 64.673 67.8543C64.6914 67.8641 64.7078 67.8738 64.7285 67.8832C64.7965 67.9164 64.8664 67.9449 64.9383 67.968C64.9582 67.9746 64.9781 67.9805 64.9984 67.9867L65.0238 67.9934L65.059 68.0027L65.0891 68.0102L65.1219 68.0172L65.1543 68.0238L65.1851 68.0289C65.2078 68.0328 65.2312 68.0367 65.2547 68.0395L65.2769 68.043L65.3176 68.0469L65.3426 68.0496L65.3836 68.0523H65.4078L65.4508 68.0547H65.5859L65.6246 68.0523L65.6691 68.0496L65.7234 68.0445L65.7742 68.0387C65.7859 68.0387 65.7976 68.0355 65.8094 68.0332C65.9656 68.0105 66.1187 67.9691 66.2652 67.9098L66.3273 67.8836C66.3621 67.8684 66.3973 67.8524 66.4293 67.8352C66.498 67.8008 66.5648 67.7617 66.6289 67.7191C66.7184 67.6605 66.8027 67.5949 66.8816 67.5227C66.9004 67.5059 66.9187 67.4879 66.9367 67.4707C66.9457 67.4621 66.9543 67.4539 66.9629 67.4445C66.9801 67.427 66.9976 67.4098 67.0148 67.3906C67.1398 67.2531 67.248 67.1016 67.3371 66.9387C68.1016 65.5484 68.9027 64.1789 69.7398 62.8316L69.8547 62.6477L69.9707 62.4637C70.0285 62.3703 70.0871 62.2785 70.1453 62.1871L70.2039 62.0957C70.3984 61.791 70.5961 61.4883 70.7973 61.1879L70.9164 61.0098C71.1555 60.6555 71.3937 60.3109 71.6301 59.9836L71.7476 59.8215C72.0047 59.4672 72.2723 59.1203 72.55 58.782L72.6601 58.65C72.6785 58.6281 72.6953 58.6063 72.7152 58.5852C72.7516 58.5422 72.7879 58.5004 72.8234 58.4598C72.8414 58.4391 72.8582 58.4188 72.8773 58.3984L72.982 58.2805L73.0344 58.223C73.0871 58.1664 73.1387 58.1121 73.1894 58.0602C73.2246 58.025 73.257 57.9902 73.2906 57.9574C73.4887 57.7551 73.707 57.5734 73.9426 57.416L73.9973 57.3809C74.0496 57.3457 74.1039 57.3129 74.1594 57.2832C75.0828 56.759 75.8473 56.7203 76.2875 57.1605C76.5539 57.427 76.7016 57.8688 76.6934 58.4836C76.6934 58.5106 76.6934 58.5379 76.6914 58.566V58.5961C76.6914 58.6242 76.689 58.6524 76.6867 58.6809C76.6867 58.716 76.6828 58.7508 76.6793 58.7859C76.6758 58.8207 76.6738 58.8473 76.6703 58.8785C76.6703 58.8871 76.6687 58.8961 76.6672 58.9055C76.6648 58.9324 76.6613 58.9602 76.6574 58.9879C76.6574 58.9961 76.6574 59.0047 76.6543 59.0133C76.65 59.0504 76.6445 59.0871 76.6383 59.1238C76.634 59.159 76.6281 59.1918 76.6219 59.2262L76.6117 59.2844C76.6016 59.3399 76.5887 59.3945 76.5726 59.4484C76.5422 59.5496 76.5055 59.6484 76.4621 59.7445C76.4016 59.8766 76.3348 60.0051 76.2613 60.1301C76.2207 60.1996 76.1789 60.268 76.1355 60.3356C76.091 60.4055 76.0441 60.4762 75.9957 60.5477C75.8723 60.7242 75.7441 60.8973 75.6109 61.0664L75.55 61.1434C75.3328 61.4141 75.1086 61.6793 74.8773 61.9383L74.8043 62.0203C74.7058 62.1301 74.6059 62.2406 74.5035 62.3516L74.4266 62.4352C74.3754 62.491 74.3219 62.5469 74.2703 62.6031C74.2191 62.659 74.1656 62.7156 74.1117 62.7723L73.9512 62.9414L73.7883 63.1117L73.6242 63.282C73.5141 63.3961 73.4035 63.5102 73.2922 63.6242C71.7082 65.2488 70.0394 66.868 69.4746 67.8773C69.4367 67.943 69.4027 68.0109 69.3723 68.0801C69.2918 68.2637 69.2582 68.4207 69.2812 68.5477C69.2887 68.5895 69.3031 68.6293 69.3246 68.666C69.3562 68.7211 69.3949 68.7719 69.4398 68.8172C69.4605 68.8375 69.4824 68.8563 69.5055 68.8734C69.6219 68.9563 69.7621 68.9988 69.9051 68.9949H69.9496L69.9953 68.9914L70.041 68.9863L70.0789 68.9809C70.084 68.9801 70.0894 68.9793 70.0945 68.9777L70.1293 68.9711L70.1383 68.9691L70.1769 68.9609L70.1906 68.9574C70.2043 68.9539 70.2176 68.9504 70.2312 68.9465C70.2449 68.9426 70.2637 68.9375 70.2801 68.932C70.3488 68.9113 70.416 68.8867 70.482 68.8586C70.5168 68.8445 70.5508 68.8293 70.5844 68.8129C70.6019 68.8051 70.6195 68.7969 70.6359 68.7883L70.6883 68.7625C70.8133 68.6977 70.9351 68.627 71.0539 68.5512L71.1059 68.516C71.1234 68.5051 71.141 68.4938 71.1578 68.4813L71.2098 68.4465L71.2375 68.4273L71.3125 68.3746C71.3824 68.3266 71.4476 68.277 71.5137 68.2266L71.5195 68.2219L71.6246 68.1406C71.768 68.0274 71.9039 67.9133 72.0273 67.8059L72.1094 67.734L72.1168 67.727L72.1598 67.6891C72.2605 67.5984 72.3504 67.5141 72.425 67.4445L72.4559 67.4145C72.4828 67.3891 72.5074 67.3652 72.5297 67.3449L72.5734 67.3016L72.5891 67.2863L72.5934 67.282L72.6391 67.2363L72.668 67.2063L72.6715 67.2035L72.6852 67.191L72.7023 67.1754L72.7078 67.1703L72.7223 67.157L72.8019 67.0871L72.8465 67.0473C72.8703 67.0266 72.8934 67.0055 72.9164 66.984L72.9695 66.9367C72.9793 66.9289 72.9887 66.9203 72.9984 66.9117L73.0543 66.8629L73.1363 66.7906L73.1801 66.7527C73.35 66.6051 73.5566 66.4266 73.7941 66.2254L73.8914 66.143L74.0519 66.0082L74.2164 65.8711C74.4312 65.6926 74.6625 65.5031 74.907 65.3066L75.0676 65.1777C75.2043 65.0688 75.3445 64.9578 75.4867 64.8461C75.5441 64.8012 75.6023 64.7563 75.6617 64.7117C75.807 64.5988 75.9531 64.4867 76.1004 64.3762C76.4355 64.1231 76.7812 63.8695 77.1312 63.6227L77.2812 63.518C77.3863 63.4457 77.491 63.3731 77.5957 63.3023L77.6906 63.2383C77.8777 63.1113 78.0676 62.9875 78.259 62.8668L78.3539 62.807L78.448 62.7484C78.5426 62.6898 78.6363 62.6324 78.7297 62.5766L78.823 62.5207L79.0098 62.4121L79.193 62.307L79.2301 62.2867L79.375 62.207C79.4355 62.1742 79.4957 62.1426 79.5558 62.1117L79.6453 62.0656L79.7324 62.0219C79.7629 62.0074 79.793 61.9922 79.8226 61.9777C80.0187 61.8809 80.2187 61.7918 80.4219 61.7106C80.4769 61.6871 80.5316 61.666 80.5859 61.6477L80.7461 61.5914C80.7941 61.5754 80.841 61.5602 80.8859 61.5465L80.9016 61.5418C80.9258 61.534 80.95 61.527 80.9738 61.5207L80.9809 61.5188C81.0309 61.5043 81.0805 61.4918 81.1293 61.4801H81.1328C81.2711 61.4469 81.4117 61.423 81.5535 61.4086C81.6187 61.402 81.684 61.3984 81.7496 61.3988H81.7824C81.8262 61.3988 81.8684 61.4016 81.9101 61.4059C81.9293 61.4059 81.9484 61.4098 81.9672 61.4121H81.975C81.9937 61.4145 82.0125 61.4172 82.0312 61.4215C82.0496 61.425 82.0684 61.4281 82.0863 61.4324H82.0922C82.1105 61.4363 82.1269 61.441 82.1461 61.4465C82.2453 61.4742 82.3398 61.5172 82.4266 61.5734C82.4691 61.6012 82.509 61.6324 82.5457 61.6672L82.5562 61.6773C82.5633 61.6836 82.5699 61.6902 82.5762 61.6969L82.5953 61.7176C82.7523 61.882 82.882 62.0707 82.9797 62.2762L82.9945 62.3113C83.0277 62.3895 83.0539 62.4703 83.0726 62.5527C83.1281 62.8051 83.1066 63.0684 83.0109 63.3086C82.9746 63.4055 82.9305 63.4988 82.8785 63.5879C82.757 63.7926 82.6129 63.9828 82.4492 64.1551L82.4144 64.1922C82.3625 64.2469 82.3086 64.3016 82.2519 64.3563C82.2269 64.3809 82.2008 64.4051 82.1746 64.4297L82.0945 64.5035L82.0527 64.5406C81.9519 64.6305 81.8484 64.7176 81.7434 64.802C81.6797 64.8535 81.6156 64.9039 81.5508 64.9535C81.3219 65.1285 81.0887 65.2973 80.8512 65.4602C80.7078 65.5586 80.5633 65.6551 80.4176 65.7504C80.0586 65.9859 79.6957 66.2156 79.3293 66.4391C78.5605 66.9117 77.7086 67.4172 76.8004 67.9668L76.5652 68.1094C76.3078 68.2664 76.0648 68.4164 75.8359 68.5594L75.7207 68.6316L75.5027 68.7715C75.3582 68.8641 75.2141 68.9574 75.0699 69.0508L74.9539 69.1273C74.8973 69.1641 74.841 69.2016 74.7848 69.2391L74.7297 69.2742L74.5609 69.3879L74.4715 69.4492L74.3668 69.5219L74.2695 69.5895C74.1066 69.7047 73.9551 69.8145 73.8156 69.9188L73.7633 69.9586C73.6812 70.0207 73.6 70.084 73.5199 70.1484C73.3992 70.2457 73.2891 70.3387 73.1902 70.4281L73.1418 70.4723C73.1141 70.4977 73.0867 70.5231 73.0605 70.548C73.0426 70.5656 73.0258 70.5832 73.007 70.6L72.982 70.625C72.9262 70.6813 72.8715 70.7387 72.8187 70.7977L72.793 70.8273C72.7355 70.8938 72.6855 70.9574 72.6418 71.0195L72.6223 71.0473C72.5879 71.0973 72.5562 71.1488 72.5277 71.202C72.5203 71.2152 72.5137 71.2285 72.507 71.2418L72.4879 71.2816L72.475 71.3106L72.4668 71.3301L72.4601 71.3477L72.4512 71.3715C72.4269 71.4375 72.4101 71.5063 72.4004 71.5758L72.3973 71.6L72.3949 71.6227V71.7457C72.3949 71.7559 72.3949 71.766 72.3976 71.777L72.3996 71.7957C72.3996 71.8059 72.4019 71.8156 72.4035 71.8266C72.4051 71.8367 72.4078 71.8551 72.4109 71.8695V71.8715C72.4137 71.8852 72.4164 71.8984 72.4199 71.9121C72.4234 71.9258 72.4269 71.9414 72.4312 71.9555C72.4387 71.9832 72.448 72.0106 72.4578 72.0379C72.4641 72.0543 72.4699 72.0703 72.4766 72.0863C72.4766 72.0895 72.4789 72.093 72.4805 72.0961L72.4945 72.1277L72.5141 72.1711C72.5351 72.216 72.5582 72.2598 72.5832 72.3023L72.609 72.3469L72.6355 72.3914C72.6402 72.3988 72.6457 72.4059 72.6516 72.4125L72.6601 72.4215L72.6699 72.4305L72.6801 72.4383C72.6949 72.4488 72.7109 72.457 72.7277 72.4629C72.7367 72.466 72.7461 72.4684 72.7555 72.4707C72.9809 72.5215 73.4441 72.3352 74.0598 72.0102C74.0945 71.9914 74.1328 71.9719 74.1699 71.9516L74.3574 71.8492L74.4488 71.7984C74.5141 71.7637 74.5805 71.7242 74.6484 71.6856L74.7723 71.6156C75.5859 71.1473 76.5578 70.5457 77.5625 69.9582C77.6566 69.9031 77.7512 69.848 77.8457 69.7938L78.0355 69.6723C78.2559 69.5461 78.4773 69.4215 78.6996 69.2984C78.9797 69.1445 79.2617 68.9945 79.5465 68.8492L79.7324 68.7551C79.8559 68.6941 79.9781 68.6348 80.0988 68.577C80.3324 68.466 80.5687 68.3606 80.8078 68.2609L80.9387 68.2078L80.9543 68.2016C81.6476 67.927 82.2762 67.7574 82.7848 67.7574C82.8945 67.7563 83.0047 67.7656 83.1129 67.7844H83.1164C83.1512 67.7906 83.1828 67.7977 83.2152 67.8055H83.2211C83.3043 67.8266 83.3851 67.8566 83.4617 67.8953C83.5691 67.9508 83.6656 68.0246 83.7473 68.1137C83.7848 68.1551 83.818 68.2 83.8473 68.2477C83.9019 68.3316 83.9449 68.4227 83.9758 68.518C83.9883 68.5551 83.9992 68.5914 84.0105 68.6301C84.093 68.9258 84.0848 69.2395 83.9871 69.5305Z" fill="#FF9D00"/>
<path fill-rule="evenodd" clip-rule="evenodd" d="M79.3789 48.3145V48.1227C79.3789 31.7734 66.1297 18.5199 49.7793 18.5199C33.4293 18.5199 20.175 31.7742 20.175 48.1227V48.1867C20.1742 48.2293 20.1738 48.2719 20.175 48.3145C20.1769 48.3781 20.1776 48.4418 20.1769 48.5055L20.1789 48.6461L20.1801 48.6965C20.1801 48.7199 20.1809 48.743 20.1817 48.7664C20.1828 48.8035 20.1836 48.841 20.1836 48.8781L20.1879 49.0301L20.1941 49.2086L20.1961 49.2672L20.2039 49.452V49.4609C20.207 49.5332 20.211 49.6051 20.2145 49.677L20.2148 49.6824C20.2187 49.7559 20.2227 49.8297 20.2274 49.9035C20.2313 49.9715 20.2352 50.0395 20.2402 50.1074L20.241 50.1195C20.2444 50.1777 20.2484 50.2363 20.2527 50.2945L20.2539 50.3102L20.2668 50.4789L20.268 50.4899C20.2703 50.5227 20.2727 50.5555 20.2758 50.5871C20.2991 50.8688 20.3264 51.1504 20.3575 51.4313L20.3594 51.4488L20.3832 51.6555L20.4098 51.8723L20.4293 52.0195L20.4383 52.0887C20.4591 52.2481 20.4816 52.407 20.5059 52.5656L20.5075 52.5762L20.5305 52.7262C20.642 53.4406 20.7801 54.1508 20.9445 54.8551L20.9465 54.8637L20.959 54.9164L20.9945 55.0668L21.0164 55.0406C21.8758 54.0133 23.1086 53.4469 24.4879 53.4469C25.5934 53.4469 26.7274 53.8125 27.8641 54.5332C28.618 55.0121 29.4516 55.8602 30.3094 56.927C31.1032 55.8246 32.2157 55.0918 33.4883 54.8918C33.731 54.8535 33.9762 54.8344 34.2219 54.834C37.1266 54.834 38.8762 57.3547 39.5371 59.6223C39.8637 60.3883 41.4375 63.8773 43.8109 66.2375C47.4187 69.8418 48.3215 73.5609 46.5359 77.5434H46.5422C46.6637 77.557 46.7859 77.5695 46.909 77.5809C46.982 77.5879 47.0547 77.5949 47.1281 77.6012L47.1539 77.6035L47.3152 77.6172L47.4637 77.6289C47.6051 77.6399 47.7469 77.65 47.8891 77.659L48.002 77.6656L48.0914 77.6711L48.1469 77.6742L48.3215 77.6832L48.3691 77.6852L48.5523 77.6934L48.7562 77.7012L48.9199 77.7059L48.9473 77.7066C48.982 77.7082 49.0168 77.7094 49.0516 77.7094L49.0891 77.7106C49.3195 77.716 49.5496 77.7188 49.7801 77.7184H50.0246L50.1992 77.7164C50.2422 77.7145 50.2848 77.7145 50.3281 77.7145H50.3961L50.4551 77.7129C50.4781 77.7121 50.5012 77.7113 50.5246 77.7113H50.5945L50.7316 77.7078L50.9379 77.7008L51.1648 77.6906C51.2305 77.6883 51.2953 77.6848 51.3602 77.6817L51.4301 77.6774L51.534 77.6719L51.5949 77.6684L51.641 77.6652L51.8508 77.6516L52.0602 77.6363L52.2504 77.6211L52.384 77.6098L52.5309 77.5965C52.7762 77.5746 53.0207 77.5488 53.2652 77.5195L53.432 77.4996C51.6746 73.534 52.5844 69.8309 56.177 66.241C58.5453 63.8746 60.1191 60.3856 60.4473 59.6191C61.1086 57.352 62.857 54.8313 65.7625 54.8313C66.0082 54.8313 66.2539 54.8508 66.4965 54.8891C67.768 55.0891 68.8805 55.8219 69.6754 56.9242C70.5336 55.8578 71.3668 55.009 72.1211 54.5301C73.2574 53.8098 74.3926 53.4441 75.4969 53.4441C76.7141 53.4441 77.8172 53.8856 78.6504 54.6953C78.6656 54.6293 78.6805 54.5633 78.6949 54.4969L78.7375 54.2992C78.7527 54.227 78.768 54.1547 78.7824 54.0824C78.8082 53.9547 78.834 53.827 78.8586 53.6981C78.8844 53.5645 78.909 53.4301 78.9324 53.2957L78.9445 53.2231C78.952 53.1801 78.959 53.1371 78.9672 53.0938C78.9805 53.0266 78.9914 52.9594 79.0023 52.8914L79.0066 52.8656L79.0344 52.6887L79.0617 52.5094V52.5078C79.0816 52.3754 79.1004 52.243 79.118 52.1106L79.1223 52.0777L79.1469 51.891L79.1668 51.7316L79.202 51.4176L79.2156 51.2914L79.2191 51.257C79.2266 51.1891 79.2336 51.1211 79.2398 51.0531V51.0477C79.2449 50.9938 79.2504 50.9395 79.2551 50.8852C79.2828 50.5774 79.3063 50.268 79.325 49.9574C79.3285 49.9066 79.3312 49.8555 79.3344 49.8043V49.802L79.3445 49.6102L79.3469 49.5672C79.3531 49.4375 79.3586 49.3078 79.3629 49.1781V49.1734L79.3648 49.1227C79.3668 49.0801 79.3684 49.0371 79.3684 48.9942L79.3691 48.977C79.3707 48.9367 79.3723 48.8953 79.3723 48.8543L79.3734 48.8191C79.3746 48.7781 79.3758 48.7375 79.3758 48.6965L79.3766 48.6617C79.3777 48.6098 79.3789 48.5574 79.3789 48.5055V48.3145ZM42.4367 77.8871C44.7812 74.4492 44.6148 71.8688 41.3984 68.6539C38.1813 65.4387 36.309 60.7371 36.309 60.7371C36.309 60.7371 35.6102 58.0063 34.0164 58.257C32.4227 58.5078 31.2536 62.5887 34.5907 65.0867C37.9274 67.5848 33.9266 69.2785 32.6422 66.9344C31.3578 64.5899 27.8512 58.5637 26.0332 57.4109C24.2152 56.2582 22.9367 56.9043 23.3652 59.2801C23.5781 60.4594 25.5578 62.4723 27.4075 64.3527C29.284 66.2606 31.0266 68.0324 30.6539 68.6594C29.9144 69.9043 27.3102 67.1965 27.3102 67.1965C27.3102 67.1965 19.1555 59.7754 17.3805 61.7094C15.7437 63.4918 18.2676 65.007 22.1567 67.3426C22.4871 67.541 22.8278 67.7457 23.1766 67.9566C27.6262 70.6504 27.9723 71.3609 27.3406 72.3801C27.1074 72.7566 25.618 71.8625 23.7859 70.7629C20.6629 68.8875 16.545 66.4152 15.9633 68.6281C15.4602 70.5434 18.4898 71.7168 21.2375 72.7813C23.5266 73.668 25.6203 74.4789 25.3121 75.5797C24.993 76.7211 23.2629 75.7691 21.3719 74.7285C19.2489 73.5602 16.9227 72.2805 16.1614 73.7246C14.7227 76.4551 26.0871 79.6695 26.1809 79.6934C29.8528 80.6457 39.1777 82.6637 42.4367 77.8871ZM57.5402 77.8871C55.1957 74.4492 55.3621 71.8688 58.5789 68.6539C61.7957 65.4387 63.668 60.7371 63.668 60.7371C63.668 60.7371 64.3668 58.0063 65.9605 58.257C67.5543 58.5078 68.7234 62.5887 65.3867 65.0867C62.0496 67.5848 66.0504 69.2785 67.3348 66.9344C68.6195 64.5899 72.1238 58.5637 73.9418 57.4109C75.7598 56.2582 77.0391 56.9043 76.6102 59.2801C76.3977 60.4594 74.4176 62.4723 72.568 64.3531C70.6914 66.2609 68.9488 68.0324 69.3211 68.6594C70.0605 69.9043 72.6668 67.1949 72.6668 67.1949C72.6668 67.1949 80.8211 59.7742 82.5969 61.7082C84.2332 63.4902 81.7094 65.0059 77.8199 67.3414C77.4797 67.5457 77.1398 67.7504 76.8004 67.9555C72.3508 70.6492 72.0047 71.3598 72.6359 72.3785C72.8695 72.7555 74.359 71.8609 76.1906 70.7613C79.3141 68.8863 83.432 66.4137 84.0137 68.627C84.5172 70.5422 81.4871 71.7156 78.7395 72.7801C76.4504 73.6668 74.3566 74.4777 74.6645 75.5785C74.9832 76.7195 76.7129 75.7676 78.6035 74.727C80.7266 73.5586 83.0531 72.2781 83.8141 73.7234C85.2531 76.4555 73.8867 79.6668 73.7949 79.6902C70.123 80.6457 60.798 82.6637 57.5402 77.8871Z" fill="#FFD21E"/>
<path fill-rule="evenodd" clip-rule="evenodd" d="M59.3934 40.0652C59.8551 40.2285 60.1984 40.7254 60.525 41.1984C60.9664 41.8375 61.3773 42.4324 62.0078 42.0973C62.7516 41.7016 63.3613 41.0945 63.7598 40.3523C64.1586 39.6102 64.3285 38.7667 64.248 37.9281C64.1879 37.3011 63.9895 36.6952 63.6668 36.1542C63.3441 35.6132 62.9055 35.1504 62.3828 34.7993C61.8598 34.4482 61.2652 34.2175 60.6426 34.1238C60.0195 34.0301 59.3836 34.0757 58.7805 34.2574C58.1773 34.439 57.6223 34.7521 57.1547 35.174C56.6871 35.596 56.3187 36.1163 56.0766 36.6977C55.8344 37.279 55.7238 37.9068 55.7531 38.5359C55.7828 39.1652 55.9512 39.7797 56.2469 40.3359C56.5391 40.8855 57.1875 40.6262 57.8719 40.3523C58.4082 40.1379 58.9672 39.9145 59.3934 40.0652ZM39.325 40.0652C38.8633 40.2285 38.5199 40.7258 38.1934 41.1984C37.752 41.8379 37.3406 42.4324 36.7105 42.0973C35.7752 41.6019 35.0579 40.7758 34.6984 39.7805C34.3389 38.785 34.363 37.6912 34.7659 36.7125C35.1689 35.7338 35.9219 34.9403 36.8781 34.4865C37.8344 34.0328 38.9253 33.9514 39.9383 34.2582C40.7449 34.5011 41.4613 34.9776 41.9973 35.6275C42.5332 36.2775 42.8641 37.0717 42.9488 37.9098C43.0332 38.7478 42.8672 39.5922 42.4719 40.3359C42.1793 40.8855 41.5309 40.6262 40.8465 40.3527C40.3098 40.1379 39.7516 39.9145 39.325 40.0652ZM56.2887 58.3273C59.4695 55.8215 60.6379 51.7301 60.6379 49.2098C60.6379 47.2176 59.2977 47.8445 57.152 48.907L57.0309 48.9668C55.0613 49.9422 52.4395 51.241 49.5613 51.241C46.6828 51.241 44.0609 49.9422 42.0918 48.9664C39.8766 47.8691 38.4871 47.1809 38.4871 49.2102C38.4871 51.8102 39.7301 56.0793 43.1418 58.5594C43.5922 57.6457 44.2262 56.8348 45.0043 56.177C45.782 55.5191 46.6875 55.0289 47.6633 54.7367C48.0039 54.6352 48.3547 55.2215 48.7137 55.8219C49.0602 56.4008 49.4145 56.993 49.7746 56.993C50.1586 56.993 50.5355 56.4094 50.9039 55.8398C51.2887 55.2441 51.6641 54.6641 52.0269 54.7801C53.8531 55.3664 55.3809 56.6379 56.2887 58.3273Z" fill="#32343D"/>
<path d="M56.2879 58.327C54.6312 59.6324 52.4293 60.5078 49.5617 60.5078C46.8676 60.5078 44.7605 59.7352 43.1418 58.559C43.5922 57.6453 44.2262 56.834 45.0043 56.1766C45.782 55.5188 46.6875 55.0285 47.6633 54.7363C48.332 54.5367 49.041 56.9926 49.7746 56.9926C50.5598 56.9926 51.3164 54.5527 52.0269 54.7797C53.8527 55.3664 55.3801 56.6379 56.2879 58.327Z" fill="#FF323D"/>
<path fill-rule="evenodd" clip-rule="evenodd" d="M31.7187 43.6094C31.3403 43.8625 30.9052 44.0184 30.452 44.0629C29.9989 44.1078 29.5417 44.0398 29.1211 43.8652C28.7849 43.7266 28.4794 43.5227 28.2222 43.2652C27.965 43.0082 27.7611 42.7027 27.6223 42.3664C27.448 41.9457 27.3803 41.4887 27.4251 41.0356C27.4698 40.5824 27.6257 40.1473 27.8789 39.7688C28.1831 39.3133 28.6155 38.9583 29.1216 38.7487C29.6276 38.5391 30.1844 38.4843 30.7215 38.5912C31.2587 38.6981 31.7521 38.962 32.1392 39.3492C32.5264 39.7367 32.7899 40.2305 32.8965 40.7676C33.0032 41.3047 32.9483 41.8613 32.7388 42.3672C32.5292 42.873 32.174 43.3051 31.7187 43.6094ZM71.3332 43.6094C70.9547 43.8625 70.5195 44.0184 70.0664 44.0629C69.6129 44.1078 69.1559 44.0398 68.7352 43.8652C68.3988 43.7262 68.0934 43.5227 67.8363 43.2652C67.5793 43.0082 67.3754 42.7027 67.2363 42.3664C67.0625 41.9457 66.9949 41.4887 67.0395 41.0356C67.0844 40.5824 67.2402 40.1473 67.493 39.7688C67.7203 39.4281 68.0207 39.1426 68.3719 38.932C68.723 38.7214 69.1164 38.5915 69.5238 38.5514C69.9316 38.5114 70.343 38.5622 70.7281 38.7003C71.1137 38.8384 71.4637 39.0603 71.7531 39.35C72.1406 39.7371 72.4043 40.2305 72.5109 40.7676C72.618 41.3047 72.5629 41.8613 72.3531 42.3672C72.1434 42.873 71.7887 43.3051 71.3332 43.6094Z" fill="#FFAD03"/>
</svg>
