<svg width="50" height="50" viewBox="0 0 50 50" fill="none" xmlns="http://www.w3.org/2000/svg">
<path d="M30.3375 18.9844L20.8875 20.1687L20.55 21.7375L22.4094 22.075C23.6188 22.3656 23.8594 22.8 23.5969 24.0094L20.55 38.3125C19.7531 42.0094 20.9875 43.75 23.8844 43.75C26.1344 43.75 28.7406 42.7125 29.925 41.2844L30.2875 39.5687C29.4656 40.2938 28.2563 40.5844 27.4594 40.5844C26.325 40.5844 25.9156 39.7875 26.2031 38.3844L30.3375 18.9844ZM30.6219 10.375C30.6219 11.469 30.1873 12.5182 29.4137 13.2918C28.6401 14.0654 27.5909 14.5 26.4969 14.5C25.4029 14.5 24.3537 14.0654 23.5801 13.2918C22.8065 12.5182 22.3719 11.469 22.3719 10.375C22.3719 9.28098 22.8065 8.23177 23.5801 7.45818C24.3537 6.6846 25.4029 6.25 26.4969 6.25C27.5909 6.25 28.6401 6.6846 29.4137 7.45818C30.1873 8.23177 30.6219 9.28098 30.6219 10.375Z" fill="#43F8FF"/>
</svg>
