<svg width="50" height="50" viewBox="0 0 50 50" fill="none" xmlns="http://www.w3.org/2000/svg">
<g clip-path="url(#clip0_7_31)">
<path fill-rule="evenodd" clip-rule="evenodd" d="M5.89063 1.59688C6.43743 1.0509 7.09401 0.627371 7.81687 0.354345C8.53973 0.081319 9.31237 -0.0349654 10.0836 0.0131978C10.8548 0.0613609 11.6069 0.272872 12.2902 0.633714C12.9735 0.994556 13.5723 1.49649 14.0469 2.10625L19.6563 9.3125C20.6844 10.6344 21.0469 12.3563 20.6406 13.9813L18.9313 20.825C18.8429 21.1795 18.8477 21.5508 18.9451 21.9028C19.0426 22.2549 19.2294 22.5758 19.4875 22.8344L27.1656 30.5125C27.4245 30.7711 27.7459 30.9583 28.0986 31.0557C28.4513 31.1532 28.8232 31.1577 29.1781 31.0688L36.0188 29.3594C36.8207 29.1589 37.6577 29.1433 38.4665 29.3138C39.2753 29.4844 40.0348 29.8365 40.6875 30.3438L47.8938 35.95C50.4844 37.9656 50.7219 41.7938 48.4031 44.1094L45.1719 47.3406C42.8594 49.6531 39.4031 50.6688 36.1813 49.5344C27.935 46.6329 20.4477 41.912 14.275 35.7219C8.08528 29.55 3.36441 22.0639 0.462507 13.8188C-0.668743 10.6 0.346882 7.14063 2.65938 4.82813L5.89063 1.59688ZM39.0625 3.125C39.4769 3.125 39.8743 3.28962 40.1674 3.58265C40.4604 3.87567 40.625 4.2731 40.625 4.6875V9.375H45.3125C45.7269 9.375 46.1243 9.53962 46.4174 9.83265C46.7104 10.1257 46.875 10.5231 46.875 10.9375C46.875 11.3519 46.7104 11.7493 46.4174 12.0424C46.1243 12.3354 45.7269 12.5 45.3125 12.5H40.625V17.1875C40.625 17.6019 40.4604 17.9993 40.1674 18.2924C39.8743 18.5854 39.4769 18.75 39.0625 18.75C38.6481 18.75 38.2507 18.5854 37.9577 18.2924C37.6646 17.9993 37.5 17.6019 37.5 17.1875V12.5H32.8125C32.3981 12.5 32.0007 12.3354 31.7077 12.0424C31.4146 11.7493 31.25 11.3519 31.25 10.9375C31.25 10.5231 31.4146 10.1257 31.7077 9.83265C32.0007 9.53962 32.3981 9.375 32.8125 9.375H37.5V4.6875C37.5 4.2731 37.6646 3.87567 37.9577 3.58265C38.2507 3.28962 38.6481 3.125 39.0625 3.125Z" fill="#43F8FF"/>
</g>
<defs>
<clipPath id="clip0_7_31">
<rect width="50" height="50" fill="white"/>
</clipPath>
</defs>
</svg>
