<svg width="75" height="75" viewBox="0 0 75 75" fill="none" xmlns="http://www.w3.org/2000/svg">
<path d="M37.5 0L45.3234 4.05L54.0328 5.37188L57.9797 13.2469L64.2469 19.4344L62.8125 28.125L64.2469 36.8156L57.9797 43.0031L54.0328 50.8781L45.3234 52.2L37.5 56.25L29.6766 52.2L20.9672 50.8781L17.0203 43.0031L10.7531 36.8156L12.1875 28.125L10.7531 19.4344L17.0203 13.2469L20.9672 5.37188L29.6766 4.05L37.5 0Z" fill="#43F8FF"/>
<path d="M18.75 55.2844V75L37.5 70.3125L56.25 75V55.2844L46.7906 56.7187L37.5 61.5281L28.2094 56.7187L18.75 55.2844Z" fill="#43F8FF"/>
</svg>
