<svg width="75" height="75" viewBox="0 0 75 75" fill="none" xmlns="http://www.w3.org/2000/svg">
<g clip-path="url(#clip0_7_25)">
<path d="M62.7375 15.975C65.2453 17.2687 68.4562 21.375 70.0313 25.1766C72.3275 30.9739 73.138 37.2533 72.3891 43.4437L72.3469 43.8047C72.3109 44.1552 72.2703 44.5052 72.225 44.8547C70.6708 53.8209 65.8115 61.8786 58.6064 67.437C51.4014 72.9954 42.3742 75.6505 33.3071 74.8781C24.24 74.1057 15.792 69.962 9.63091 63.2651C3.46981 56.5681 0.0433904 47.8046 0.0281258 38.7047V38.5172C0.103126 36.8156 0.285938 35.1234 0.562501 33.4453C0.609376 33.0984 0.914063 31.4766 0.984376 31.1531L1.03125 30.9141C1.91447 26.956 3.57295 23.2121 5.91094 19.8984C6.92813 18.4453 8.06719 17.0859 9.30938 15.8203C10.4016 14.7047 11.5922 13.6828 12.8625 12.7734C13.2468 12.52 13.655 12.3049 14.0813 12.1312C13.9969 13.3875 13.8938 19.4109 15.3375 21.2391H15.3516C17.7706 18.4025 20.7523 16.0992 24.1078 14.475C23.3452 17.393 23.3792 20.4621 24.2063 23.3625C24.5344 23.5828 24.8484 23.8219 25.1437 24.075C25.6453 24.4969 26.2031 25.0453 27.2719 26.1047L27.5906 26.4141L27.6328 26.4562C27.9449 26.7612 28.2786 27.0432 28.6313 27.3C30.4266 28.6453 33.0516 29.9391 34.7531 30.7734C35.6953 31.2422 36.3563 31.5609 36.4359 31.6781L36.4547 31.7156C36.3984 32.6203 33.1969 35.7375 32.0812 35.7375C21.7406 35.7375 20.0625 41.9953 20.0625 41.9953C20.4703 46.6687 23.4094 50.6156 27.1734 53.0438C27.8332 53.4661 28.5207 53.8435 29.2313 54.1734C29.5875 54.3328 29.9438 54.4781 30.3 54.6141C31.8234 55.1531 33.4172 55.4578 35.0344 55.5234C49.2984 56.1938 54.5109 42.3797 49.7016 33.2812C48.8441 31.6659 47.6802 30.2283 46.275 29.0578C45.4528 28.3782 44.5546 27.7962 43.5984 27.3234L43.5844 27.3141C46.669 26.9133 49.7925 27.6717 52.35 29.4422C50.7523 26.6263 48.4382 24.2833 45.6424 22.6508C42.8466 21.0182 39.6688 20.1544 36.4313 20.1469C36.0656 20.1469 35.7141 20.1703 35.3531 20.1937L35.1562 20.2078L35.1469 20.2031C33.8774 20.2902 32.6205 20.5101 31.3969 20.8594C30.8941 20.3504 30.3735 19.8595 29.8359 19.3875C29.5365 19.1332 29.2236 18.8954 28.8984 18.675C28.7283 18.0845 28.5906 17.4852 28.4859 16.8797C30.5234 16.1297 32.6574 15.6735 34.8234 15.525L35.0578 15.5109C35.3016 15.4922 35.6437 15.4641 36.0187 15.4547C37.4813 10.3687 40.9359 3.95156 47.6719 0.00937369L47.6578 0.0328112L47.6719 0.0281237L47.6813 0.0187487H47.6906L47.7 0.00937369C47.723 0.00297895 47.7473 0.00297895 47.7703 0.00937369C47.7924 0.0132385 47.8123 0.0248788 47.8266 0.0421862C48.0659 0.824981 48.3897 1.57942 48.7922 2.29219C49.0734 2.775 49.3641 3.22969 49.65 3.68437C51.9469 7.3125 54.4453 10.1484 56.8828 12.9094C60.4969 17.0062 63.9703 20.9484 66.4266 27.0656L66.4219 27.0047C65.7703 23.16 64.5275 19.4394 62.7375 15.975Z" fill="#43F8FF"/>
</g>
<defs>
<clipPath id="clip0_7_25">
<rect width="75" height="75" fill="white"/>
</clipPath>
</defs>
</svg>
