<svg width="30" height="30" viewBox="0 0 30 30" fill="none" xmlns="http://www.w3.org/2000/svg">
<path d="M2.8125 2.8125C2.8125 2.56386 2.91127 2.3254 3.08709 2.14959C3.2629 1.97377 3.50136 1.875 3.75 1.875H26.25C26.4986 1.875 26.7371 1.97377 26.9129 2.14959C27.0887 2.3254 27.1875 2.56386 27.1875 2.8125V6.5625C27.1875 6.7937 27.102 7.01674 26.9475 7.18875L18.75 16.2975V25.3125C18.7499 25.5092 18.6878 25.7008 18.5728 25.8603C18.4577 26.0198 18.2954 26.1391 18.1087 26.2012L12.4837 28.0762C12.3429 28.1232 12.1929 28.136 12.0461 28.1136C11.8994 28.0912 11.76 28.0343 11.6395 27.9475C11.5191 27.8607 11.4209 27.7465 11.3532 27.6144C11.2855 27.4823 11.2501 27.336 11.25 27.1875V16.2975L3.0525 7.18875C2.89802 7.01674 2.81254 6.7937 2.8125 6.5625V2.8125Z" fill="#43F8FF"/>
</svg>
