<svg width="75" height="75" viewBox="0 0 75 75" fill="none" xmlns="http://www.w3.org/2000/svg">
<path d="M14.0625 0C10.3329 0 6.75604 1.48158 4.11881 4.11881C1.48158 6.75604 0 10.3329 0 14.0625L0 60.9375C0 64.6671 1.48158 68.244 4.11881 70.8812C6.75604 73.5184 10.3329 75 14.0625 75H60.9375C64.6671 75 68.244 73.5184 70.8812 70.8812C73.5184 68.244 75 64.6671 75 60.9375V14.0625C75 10.3329 73.5184 6.75604 70.8812 4.11881C68.244 1.48158 64.6671 0 60.9375 0L14.0625 0ZM25.7812 18.75C25.7812 20.6148 25.0405 22.4032 23.7218 23.7218C22.4032 25.0405 20.6148 25.7812 18.75 25.7812C16.8852 25.7812 15.0968 25.0405 13.7782 23.7218C12.4595 22.4032 11.7188 20.6148 11.7188 18.75C11.7188 16.8852 12.4595 15.0968 13.7782 13.7782C15.0968 12.4595 16.8852 11.7188 18.75 11.7188C20.6148 11.7188 22.4032 12.4595 23.7218 13.7782C25.0405 15.0968 25.7812 16.8852 25.7812 18.75ZM63.2812 18.75C63.2812 20.6148 62.5405 22.4032 61.2218 23.7218C59.9032 25.0405 58.1148 25.7812 56.25 25.7812C54.3852 25.7812 52.5968 25.0405 51.2782 23.7218C49.9595 22.4032 49.2188 20.6148 49.2188 18.75C49.2188 16.8852 49.9595 15.0968 51.2782 13.7782C52.5968 12.4595 54.3852 11.7188 56.25 11.7188C58.1148 11.7188 59.9032 12.4595 61.2218 13.7782C62.5405 15.0968 63.2812 16.8852 63.2812 18.75ZM56.25 63.2812C54.3852 63.2812 52.5968 62.5405 51.2782 61.2218C49.9595 59.9032 49.2188 58.1148 49.2188 56.25C49.2188 54.3852 49.9595 52.5968 51.2782 51.2782C52.5968 49.9595 54.3852 49.2188 56.25 49.2188C58.1148 49.2188 59.9032 49.9595 61.2218 51.2782C62.5405 52.5968 63.2812 54.3852 63.2812 56.25C63.2812 58.1148 62.5405 59.9032 61.2218 61.2218C59.9032 62.5405 58.1148 63.2812 56.25 63.2812ZM25.7812 56.25C25.7812 58.1148 25.0405 59.9032 23.7218 61.2218C22.4032 62.5405 20.6148 63.2812 18.75 63.2812C16.8852 63.2812 15.0968 62.5405 13.7782 61.2218C12.4595 59.9032 11.7188 58.1148 11.7188 56.25C11.7188 54.3852 12.4595 52.5968 13.7782 51.2782C15.0968 49.9595 16.8852 49.2188 18.75 49.2188C20.6148 49.2188 22.4032 49.9595 23.7218 51.2782C25.0405 52.5968 25.7812 54.3852 25.7812 56.25ZM37.5 44.5312C35.6352 44.5312 33.8468 43.7905 32.5282 42.4718C31.2095 41.1532 30.4688 39.3648 30.4688 37.5C30.4688 35.6352 31.2095 33.8468 32.5282 32.5282C33.8468 31.2095 35.6352 30.4688 37.5 30.4688C39.3648 30.4688 41.1532 31.2095 42.4718 32.5282C43.7905 33.8468 44.5312 35.6352 44.5312 37.5C44.5312 39.3648 43.7905 41.1532 42.4718 42.4718C41.1532 43.7905 39.3648 44.5312 37.5 44.5312Z" fill="#43F8FF"/>
</svg>
