<svg width="75" height="75" viewBox="0 0 75 75" fill="none" xmlns="http://www.w3.org/2000/svg">
<path d="M30.4688 67.9687V51.539C30.4688 50.3906 31.6406 49.2187 32.8125 49.2187H42.1875C43.3594 49.2187 44.5312 50.3906 44.5312 51.5625V67.9687C44.5312 68.5903 44.7782 69.1865 45.2177 69.626C45.6573 70.0656 46.2534 70.3125 46.875 70.3125H65.625C66.2466 70.3125 66.8427 70.0656 67.2823 69.626C67.7218 69.1865 67.9688 68.5903 67.9688 67.9687V35.1562C67.9693 34.8482 67.9091 34.5432 67.7917 34.2584C67.6743 33.9737 67.5019 33.7149 67.2844 33.4969L60.9375 27.1547V11.7187C60.9375 11.0971 60.6906 10.501 60.251 10.0614C59.8115 9.62191 59.2154 9.37498 58.5938 9.37498H53.9062C53.2846 9.37498 52.6885 9.62191 52.249 10.0614C51.8094 10.501 51.5625 11.0971 51.5625 11.7187V17.7797L39.1594 5.37185C38.9417 5.15359 38.683 4.98042 38.3983 4.86226C38.1135 4.74411 37.8083 4.68329 37.5 4.68329C37.1917 4.68329 36.8865 4.74411 36.6017 4.86226C36.317 4.98042 36.0583 5.15359 35.8406 5.37185L7.71563 33.4969C7.49812 33.7149 7.32572 33.9737 7.20829 34.2584C7.09086 34.5432 7.0307 34.8482 7.03125 35.1562V67.9687C7.03125 68.5903 7.27818 69.1865 7.71772 69.626C8.15726 70.0656 8.7534 70.3125 9.375 70.3125H28.125C28.7466 70.3125 29.3427 70.0656 29.7823 69.626C30.2218 69.1865 30.4688 68.5903 30.4688 67.9687Z" fill="#43F8FF"/>
</svg>
