<svg width="50" height="50" viewBox="0 0 50 50" fill="none" xmlns="http://www.w3.org/2000/svg">
<g clip-path="url(#clip0_8_46)">
<path d="M24.8875 4.77188C15.5844 4.77188 7.47813 10.0969 5.1375 17.6625H3.41875C2.96316 17.663 2.51318 17.7631 2.10035 17.9558C1.68752 18.1485 1.32182 18.4292 1.02887 18.7781C0.735919 19.127 0.522804 19.5358 0.404456 19.9757C0.286109 20.4157 0.26539 20.8762 0.343753 21.325L1.1375 25.8875C1.32666 26.9752 1.89367 27.9613 2.73862 28.6719C3.58357 29.3825 4.65222 29.772 5.75625 29.7719H6.57813C7.51563 31.375 8.72813 32.8281 10.1563 34.0906L7.87813 41.8313C7.80962 42.0643 7.7964 42.3101 7.83952 42.5492C7.88264 42.7883 7.9809 43.014 8.12651 43.2084C8.27212 43.4029 8.46106 43.5607 8.67833 43.6694C8.89559 43.778 9.1352 43.8345 9.37813 43.8344H15.6281C15.9505 43.8344 16.265 43.7347 16.5286 43.549C16.7921 43.3632 16.9917 43.1005 17.1 42.7969L18.6063 38.575C20.5906 39.1156 22.7 39.4094 24.8906 39.4094C27.1 39.4094 29.2281 39.1125 31.2281 38.5594L32.925 42.8469C33.0403 43.1382 33.2405 43.3881 33.4996 43.5642C33.7588 43.7403 34.0648 43.8344 34.3781 43.8344H40.6281C40.8719 43.8341 41.1123 43.7768 41.33 43.6671C41.5477 43.5573 41.7367 43.3981 41.8819 43.2022C42.027 43.0063 42.1244 42.7792 42.166 42.539C42.2077 42.2987 42.1926 42.0521 42.1219 41.8188L39.7438 33.9875C43.1563 30.9219 45.3125 26.7469 45.3125 22.0906C45.3125 21.6375 45.2906 21.1844 45.25 20.7438C46.0656 20.4 46.8375 19.9125 47.4531 19.3563C48.4375 20.3125 50 20.3125 50 18.0531C50 18.75 48.4375 18.75 48.5594 17.9719C48.6906 17.721 48.7854 17.4527 48.8406 17.175C48.9141 16.8131 48.8948 16.4384 48.7844 16.086C48.674 15.7335 48.4762 15.4147 48.2094 15.1594C47.928 14.8693 47.5577 14.6816 47.1574 14.6262C46.7571 14.5707 46.3497 14.6506 46 14.8531C45.6785 15.0308 45.4042 15.283 45.2003 15.5886C44.9964 15.8942 44.8688 16.2443 44.8281 16.6094C44.7531 17.3688 45.0844 18.1094 45.8281 18.6531C45.57 18.8315 45.2996 18.9913 45.0188 19.1313C43.35 10.8063 34.7563 4.77188 24.8875 4.77188ZM47.3031 16.8844C47.2475 17.1219 47.1432 17.3454 46.9969 17.5406C46.9501 17.5162 46.9043 17.4902 46.8594 17.4625C46.4031 17.1813 46.3688 16.9156 46.3844 16.7656C46.3998 16.6535 46.4407 16.5464 46.5041 16.4527C46.5675 16.3589 46.6517 16.281 46.75 16.225C46.9031 16.1406 47 16.1594 47.1031 16.2625C47.19 16.3381 47.2546 16.4359 47.2898 16.5456C47.3251 16.6552 47.3297 16.7723 47.3031 16.8844ZM19.1813 14.8531C18.9811 14.9211 18.7692 14.9477 18.5584 14.9313C18.3477 14.915 18.1424 14.856 17.9551 14.7581C17.7678 14.6601 17.6023 14.5252 17.4686 14.3614C17.335 14.1976 17.2359 14.0084 17.1775 13.8052C17.1191 13.6021 17.1025 13.3892 17.1288 13.1794C17.155 12.9696 17.2236 12.7674 17.3303 12.5849C17.437 12.4024 17.5796 12.2435 17.7495 12.1177C17.9194 11.9919 18.1131 11.9019 18.3188 11.8531C20.4548 11.2427 22.6659 10.9345 24.8875 10.9375C27.2719 10.9375 29.5656 11.2813 31.7 11.9219C31.8966 11.9808 32.0796 12.0778 32.2387 12.2074C32.3978 12.3371 32.5298 12.4968 32.6271 12.6774C32.7245 12.858 32.7853 13.0561 32.8061 13.2602C32.8269 13.4644 32.8073 13.6706 32.7484 13.8672C32.6896 14.0638 32.5925 14.2468 32.4629 14.4059C32.3333 14.565 32.1736 14.6969 31.9929 14.7943C31.8123 14.8917 31.6142 14.9525 31.4101 14.9733C31.2059 14.9941 30.9997 14.9745 30.8031 14.9156C28.8831 14.3456 26.8903 14.0582 24.8875 14.0625C22.8875 14.0625 20.9656 14.3438 19.1813 14.8563V14.8531ZM15.625 19.5313C15.625 20.1529 15.3781 20.749 14.9385 21.1885C14.499 21.6281 13.9029 21.875 13.2813 21.875C12.6597 21.875 12.0635 21.6281 11.624 21.1885C11.1844 20.749 10.9375 20.1529 10.9375 19.5313C10.9375 18.9097 11.1844 18.3135 11.624 17.874C12.0635 17.4344 12.6597 17.1875 13.2813 17.1875C13.9029 17.1875 14.499 17.4344 14.9385 17.874C15.3781 18.3135 15.625 18.9097 15.625 19.5313Z" fill="#43F8FF"/>
</g>
<defs>
<clipPath id="clip0_8_46">
<rect width="50" height="50" fill="white"/>
</clipPath>
</defs>
</svg>
