<svg width="25" height="25" viewBox="0 0 25 25" fill="none" xmlns="http://www.w3.org/2000/svg">
<g clip-path="url(#clip0_5_61)">
<path d="M24.9439 1.07185C25.0007 0.929872 25.0146 0.77434 24.9839 0.624533C24.9532 0.474727 24.8791 0.337233 24.771 0.229098C24.6629 0.120963 24.5254 0.0469416 24.3756 0.0162112C24.2258 -0.0145192 24.0702 -0.00060752 23.9283 0.0562216L1.19857 9.14841H1.19701L0.490759 9.42966C0.356994 9.48302 0.24058 9.57231 0.154377 9.68768C0.0681742 9.80304 0.015537 9.93999 0.00227993 10.0834C-0.0109772 10.2268 0.0156618 10.3711 0.0792542 10.5003C0.142847 10.6295 0.240918 10.7386 0.362634 10.8156L1.00326 11.2218L1.00482 11.225L8.80951 16.1906L13.7751 23.9953L13.7783 23.9984L14.1845 24.639C14.2617 24.7603 14.3709 24.8579 14.5 24.9211C14.6291 24.9843 14.7732 25.0106 14.9163 24.9972C15.0594 24.9838 15.1961 24.9311 15.3112 24.8451C15.4264 24.759 15.5155 24.6428 15.5689 24.5093L24.9439 1.07185ZM22.0798 4.02497L10.3704 15.7343L10.0345 15.2062C9.97296 15.1093 9.8908 15.0272 9.79388 14.9656L9.26576 14.6297L20.9751 2.92028L22.8158 2.18435L22.0814 4.02497H22.0798Z" fill="#43F8FF"/>
</g>
<defs>
<clipPath id="clip0_5_61">
<rect width="25" height="25" fill="white"/>
</clipPath>
</defs>
</svg>
