<svg width="100" height="100" viewBox="0 0 100 100" fill="none" xmlns="http://www.w3.org/2000/svg">
<g clip-path="url(#clip0_19_40)">
<path d="M89.0625 0H10.9375C4.89689 0 0 4.89689 0 10.9375V89.0625C0 95.1031 4.89689 100 10.9375 100H89.0625C95.1031 100 100 95.1031 100 89.0625V10.9375C100 4.89689 95.1031 0 89.0625 0Z" fill="#092E20"/>
<path d="M72.8035 36.7959V62.6658C72.8035 71.5794 72.1514 75.8546 70.1949 79.5505C68.3829 83.1021 65.9913 85.3479 61.064 87.812L50.7011 82.8842C55.6289 80.5655 58.0201 78.537 59.5418 75.4198C61.1364 72.2316 61.6441 68.5356 61.6441 58.8254V36.7959H72.8035ZM55.0502 19.562V71.2176C49.3253 72.3045 45.1221 72.7392 40.5571 72.7392C26.9331 72.7392 19.8315 66.5801 19.8315 54.7676C19.8315 43.3903 27.3683 35.9993 39.035 35.9993C40.8465 35.9993 42.2232 36.1438 43.8903 36.5786V19.562H55.0502ZM40.1224 44.9845C34.47 44.9845 31.2088 48.463 31.2088 54.5497C31.2088 60.4925 34.325 63.7532 40.0499 63.7532C41.2813 63.7532 42.2962 63.6807 43.8903 63.4638V45.5637C42.586 45.1294 41.4991 44.9845 40.1224 44.9845ZM72.8035 19.6214V31.0711H61.6441V19.6214H72.8035Z" fill="#FFFFFD"/>
</g>
<defs>
<clipPath id="clip0_19_40">
<rect width="100" height="100" fill="white"/>
</clipPath>
</defs>
</svg>
