<svg width="100" height="100" viewBox="0 0 100 100" fill="none" xmlns="http://www.w3.org/2000/svg">
<g clip-path="url(#clip0_19_22)">
<path fill-rule="evenodd" clip-rule="evenodd" d="M49.9968 1.04167C22.3874 1.04167 0 23.5147 0 51.243C0 73.418 14.325 92.233 34.1969 98.8717C36.6969 99.3329 37.6094 97.783 37.6094 96.4527C37.6094 95.2605 37.5656 92.1043 37.5406 87.9159C23.6312 90.9498 20.6969 81.1863 20.6969 81.1863C18.425 75.3884 15.1469 73.8448 15.1469 73.8448C10.6063 70.7294 15.4906 70.792 15.4906 70.792C20.5062 71.1465 23.1468 75.9656 23.1468 75.9656C27.6093 83.6365 34.85 81.4215 37.7 80.1352C38.1531 76.8912 39.4469 74.6794 40.875 73.4244C29.7719 72.1569 18.1 67.8524 18.1 48.6171C18.1 43.136 20.0469 38.6558 23.2469 35.1451C22.7313 33.8744 21.0157 28.7731 23.7344 21.8614C23.7344 21.8614 27.9344 20.5123 37.4844 27.0067C41.475 25.8929 45.7501 25.3376 50.0032 25.3156C54.2501 25.3376 58.5281 25.8929 62.5219 27.0067C72.0656 20.5123 76.2563 21.8614 76.2563 21.8614C78.9844 28.7731 77.2687 33.8744 76.7531 35.1451C79.9594 38.6558 81.8938 43.136 81.8938 48.6171C81.8938 67.8994 70.2031 72.1442 59.0656 73.3866C60.8594 74.9365 62.4594 77.9987 62.4594 82.6828C62.4594 89.3937 62.3969 94.8056 62.3969 96.4527C62.3969 97.7955 63.2969 99.358 65.8344 98.8654C85.6875 92.2141 100 73.4117 100 51.243C100 23.5147 77.6124 1.04167 49.9968 1.04167Z" fill="#3E75C3"/>
</g>
<defs>
<clipPath id="clip0_19_22">
<rect width="100" height="100" fill="white"/>
</clipPath>
</defs>
</svg>
