<svg width="100" height="100" viewBox="0 0 100 100" fill="none" xmlns="http://www.w3.org/2000/svg">
<path d="M49.6406 6.56249C27.4531 6.56249 28.8563 16.1562 28.8563 16.1562V26.125H49.9562V29.25H20.4531C20.4531 29.25 6.25 27.5 6.25 50.0156C6.25 72.5312 18.7906 71.6156 18.7906 71.6156H26.0312V61.1125C26.0312 61.1125 25.625 48.5719 38.2187 48.5719H59.35C59.35 48.5719 71.1375 48.7594 71.1375 37.1594V18.125C71.1375 18.125 72.925 6.52499 49.7562 6.52499L49.6406 6.56249ZM37.9781 13.2406C38.7282 13.2217 39.4671 13.4256 40.1014 13.8267C40.7356 14.2277 41.2366 14.8078 41.5411 15.4936C41.8456 16.1794 41.9399 16.9401 41.8121 17.6795C41.6843 18.4189 41.34 19.1037 40.823 19.6475C40.3059 20.1913 39.6391 20.5694 38.9071 20.7343C38.1751 20.8991 37.4106 20.8431 36.7104 20.5734C36.0101 20.3038 35.4056 19.8325 34.9732 19.2192C34.5408 18.606 34.3 17.8782 34.2812 17.1281V17.0656C34.2812 16.5674 34.3794 16.0741 34.57 15.6138C34.7607 15.1535 35.0401 14.7353 35.3924 14.383C35.7447 14.0308 36.1629 13.7513 36.6232 13.5607C37.0835 13.37 37.5768 13.2719 38.075 13.2719L37.9781 13.2406Z" fill="url(#paint0_linear_19_14)"/>
<path d="M50.2656 93.4688C72.4531 93.4688 71.05 83.8437 71.05 83.8437V73.9062H49.9531V70.7812H79.5469C79.5469 70.7812 93.75 72.3688 93.75 49.9844C93.75 27.6 81.2094 28.3844 81.2094 28.3844H73.875V38.75C73.875 38.75 74.2812 51.2906 61.6875 51.2906H40.5469C40.5469 51.2906 28.75 51.1125 28.75 62.7125V81.875C28.75 81.875 26.9625 93.475 50.1312 93.475H50.2563L50.2656 93.4688ZM61.9281 86.7594C61.178 86.7783 60.4391 86.5743 59.8049 86.1733C59.1707 85.7723 58.6696 85.1922 58.3651 84.5064C58.0606 83.8206 57.9663 83.0599 58.0941 82.3205C58.222 81.5811 58.5662 80.8962 59.0833 80.3525C59.6004 79.8087 60.2671 79.4305 60.9991 79.2657C61.7312 79.1009 62.4957 79.1569 63.1959 79.4266C63.8961 79.6962 64.5007 80.1675 64.933 80.7808C65.3654 81.394 65.6062 82.1217 65.625 82.8719V82.9656C65.625 83.9718 65.2253 84.9367 64.5138 85.6482C63.8024 86.3597 62.8374 86.7594 61.8312 86.7594H61.9281Z" fill="url(#paint1_linear_19_14)"/>
<defs>
<linearGradient id="paint0_linear_19_14" x1="14.8974" y1="15.0716" x2="56.4182" y2="56.4983" gradientUnits="userSpaceOnUse">
<stop stop-color="#387EB8"/>
<stop offset="1" stop-color="#366994"/>
</linearGradient>
<linearGradient id="paint1_linear_19_14" x1="39.4609" y1="42.058" x2="86.899" y2="83.4723" gradientUnits="userSpaceOnUse">
<stop stop-color="#FFE052"/>
<stop offset="1" stop-color="#FFC331"/>
</linearGradient>
</defs>
</svg>
